<svg width="20" height="20" viewBox="0 0 20 20" fill="none" xmlns="http://www.w3.org/2000/svg">
<path d="M2.71164 0C2.51758 0 2.33147 0.0770902 2.19424 0.214312L0.214312 2.19424C0.0770904 2.33147 0 2.51758 0 2.71164C0 3.36352 0.788155 3.68998 1.2491 3.22903L3.22903 1.2491C3.68998 0.788153 3.36352 0 2.71164 0Z" fill="#0071BC"/>
<path d="M6.8508 0C6.65674 0 6.47063 0.0770904 6.33341 0.214312L0.214312 6.33341C0.0770899 6.47063 0 6.65674 0 6.8508C0 7.50268 0.788154 7.82915 1.2491 7.3682L7.3682 1.2491C7.82915 0.788152 7.50268 0 6.8508 0Z" fill="#0071BC"/>
<path d="M10.99 0C10.7959 0 10.6098 0.0770897 10.4726 0.214312L0.214312 10.4726C0.0770904 10.6098 0 10.7959 0 10.99C0 11.6418 0.788155 11.9683 1.2491 11.5074L11.5074 1.2491C11.9683 0.788152 11.6418 0 10.99 0Z" fill="#0071BC"/>
<path d="M15.1291 0C14.9351 0 14.749 0.0770903 14.6117 0.214312L0.214313 14.6117C0.077092 14.7489 0 14.9351 0 15.1291C0 15.781 0.788153 16.1075 1.2491 15.6465L15.6465 1.2491C16.1075 0.788153 15.781 0 15.1291 0Z" fill="#0071BC"/>
<path d="M19.2683 0C19.0742 0 18.8881 0.0770908 18.7509 0.214314L0.214314 18.7509C0.0770896 18.8881 0 19.0742 0 19.2683C0 19.6724 0.32759 20 0.731703 20C0.925763 20 1.11187 19.9229 1.24909 19.7857L19.7857 1.24909C19.9229 1.11187 20 0.925761 20 0.731702C20 0.32759 19.6724 0 19.2683 0Z" fill="#0071BC"/>
<path d="M20 4.87086C20 4.21898 19.2118 3.89252 18.7509 4.35347L4.35347 18.7509C3.89251 19.2119 4.21898 20 4.87086 20C5.06492 20 5.25104 19.9229 5.38826 19.7857L19.7857 5.38826C19.9229 5.25104 20 5.06492 20 4.87086Z" fill="#0071BC"/>
<path d="M20 9.01002C20 8.35814 19.2118 8.03168 18.7509 8.49263L8.49263 18.7509C8.03168 19.2119 8.35814 20 9.01002 20C9.20408 20 9.3902 19.9229 9.52742 19.7857L19.7857 9.52742C19.9229 9.3902 20 9.20408 20 9.01002Z" fill="#0071BC"/>
<path d="M20 13.1492C20 12.4973 19.2118 12.1708 18.7509 12.6318L12.6318 18.7509C12.1708 19.2119 12.4973 20 13.1492 20C13.3432 20 13.5294 19.9229 13.6666 19.7857L19.7857 13.6666C19.9229 13.5294 20 13.3432 20 13.1492Z" fill="#0071BC"/>
<path d="M20 17.2883C20 16.6365 19.2118 16.31 18.7509 16.771L16.771 18.7509C16.31 19.2118 16.6365 20 17.2883 20C17.4824 20 17.6685 19.9229 17.8057 19.7857L19.7857 17.8057C19.9229 17.6685 20 17.4824 20 17.2883Z" fill="#0071BC"/>
</svg>
